<svg width="300" height="250" viewBox="0 0 300 250" fill="none" xmlns="http://www.w3.org/2000/svg">
  <rect width="300" height="250" fill="#EFF6FF" />
  <circle cx="150" cy="60" r="30" fill="#3B82F6" />
  <circle cx="100" cy="120" r="25" fill="#60A5FA" />
  <circle cx="200" cy="120" r="25" fill="#60A5FA" />
  <circle cx="80" cy="180" r="20" fill="#93C5FD" />
  <circle cx="150" cy="180" r="20" fill="#93C5FD" />
  <circle cx="220" cy="180" r="20" fill="#93C5FD" />
  <path d="M150 90L100 145H200L150 90Z" fill="#2563EB" />
  <path d="M150 30C139.5 30 131 38.5 131 49C131 59.5 139.5 68 150 68C160.5 68 169 59.5 169 49C169 38.5 160.5 30 150 30ZM150 64C141.7 64 135 57.3 135 49C135 40.7 141.7 34 150 34C158.3 34 165 40.7 165 49C165 57.3 158.3 64 150 64Z" fill="white" />
  <path d="M100 95C89.5 95 81 103.5 81 114C81 124.5 89.5 133 100 133C110.5 133 119 124.5 119 114C119 103.5 110.5 95 100 95ZM100 129C91.7 129 85 122.3 85 114C85 105.7 91.7 99 100 99C108.3 99 115 105.7 115 114C115 122.3 108.3 129 100 129Z" fill="white" />
  <path d="M200 95C189.5 95 181 103.5 181 114C181 124.5 189.5 133 200 133C210.5 133 219 124.5 219 114C219 103.5 210.5 95 200 95ZM200 129C191.7 129 185 122.3 185 114C185 105.7 191.7 99 200 99C208.3 99 215 105.7 215 114C215 122.3 208.3 129 200 129Z" fill="white" />
  <path d="M150 160C139.5 160 131 168.5 131 179C131 189.5 139.5 198 150 198C160.5 198 169 189.5 169 179C169 168.5 160.5 160 150 160ZM150 194C141.7 194 135 187.3 135 179C135 170.7 141.7 164 150 164C158.3 164 165 170.7 165 179C165 187.3 158.3 194 150 194Z" fill="white" />
  <path d="M80 160C69.5 160 61 168.5 61 179C61 189.5 69.5 198 80 198C90.5 198 99 189.5 99 179C99 168.5 90.5 160 80 160ZM80 194C71.7 194 65 187.3 65 179C65 170.7 71.7 164 80 164C88.3 164 95 170.7 95 179C95 187.3 88.3 194 80 194Z" fill="white" />
  <path d="M220 160C209.5 160 201 168.5 201 179C201 189.5 209.5 198 220 198C230.5 198 239 189.5 239 179C239 168.5 230.5 160 220 160ZM220 194C211.7 194 205 187.3 205 179C205 170.7 211.7 164 220 164C228.3 164 235 170.7 235 179C235 187.3 228.3 194 220 194Z" fill="white" />
</svg> 